<?xml version="1.0" encoding="UTF-8"?>
<svg width="1200pt" height="1200pt" version="1.1" viewBox="0 0 1200 1200" xmlns="http://www.w3.org/2000/svg">
 <path d="m1157.3 505.87-112.5-187.5c-6.75-11.25-19.125-18.375-32.25-18.375h-825c-13.125 0-25.5 6.75-32.25 18.375l-112.5 187.5c-7.125 11.625-7.125 25.875-0.375 37.875s19.125 19.125 32.625 19.125h37.5v493.13c0 58.875 48 106.88 106.88 106.88h761.26c58.875 0 106.88-48 106.88-106.88v-493.13h37.5c13.5 0 25.875-7.125 32.625-19.125s6.375-26.25-0.375-37.875zm-166.13-130.87 67.5 112.5h-325.13l-67.5-112.5zm-782.26 0h325.13l-67.5 112.5h-325.13zm-21.375 680.63v-493.13h300c13.125 0 25.5-6.75 32.25-18.375l42.75-71.25v614.63h-343.13c-17.625 0-31.875-14.25-31.875-31.875zm825 0c0 17.625-14.25 31.875-31.875 31.875h-343.13v-614.63l42.75 71.25c6.75 11.25 19.125 18.375 32.25 18.375h300zm-450-868.13v-112.5c0-20.625 16.875-37.5 37.5-37.5s37.5 16.875 37.5 37.5v112.5c0 20.625-16.875 37.5-37.5 37.5s-37.5-16.875-37.5-37.5zm-333.37-95.625c-9.375-18.375-1.875-40.875 16.875-50.25 18.375-9.375 40.875-1.875 50.25 16.875l75 150c9.375 18.375 1.875 40.875-16.875 50.25-5.25 2.625-11.25 4.125-16.875 4.125-13.875 0-27-7.5-33.75-20.625l-75-150zm600 116.25 75-150c9.375-18.375 31.875-26.25 50.25-16.875s25.875 31.875 16.875 50.25l-75 150c-6.75 13.125-19.875 20.625-33.75 20.625-5.625 0-11.25-1.125-16.875-4.125-18.375-9.375-25.875-31.875-16.875-50.25z"/>
</svg>
