<?xml version="1.0" encoding="UTF-8"?>
<svg width="1200pt" height="1200pt" version="1.1" viewBox="0 0 1200 1200" xmlns="http://www.w3.org/2000/svg">
 <path d="m600 579.32c12.422 0 20.672-8.2969 20.672-20.672v-103.5h37.219c57.938 0 140.68-12.422 194.48-66.188 86.906-86.906 62.062-248.29 62.062-252.42-4.0781-4.125-12.375-12.422-20.625-12.422-8.2969 0-165.52-24.844-252.42 62.062-16.547 16.547-28.969 37.219-41.391 57.938-8.2969-24.844-24.844-41.391-41.391-57.938-86.906-91.031-244.13-62.062-252.42-62.062-8.25 0-16.547 8.2969-16.547 16.547 0 8.2969-24.844 165.52 62.062 252.42 53.812 53.812 136.55 66.188 194.48 66.188h37.219v99.328c-4.0781 12.422 4.1719 20.719 16.594 20.719zm70.359-368.29c57.938-57.938 161.39-53.812 202.78-49.641 4.125 37.219 8.2969 144.84-49.641 202.78-45.516 45.516-124.13 53.812-173.81 53.812l194.48-194.48c8.2969-8.2969 8.2969-20.672 0-28.969s-20.672-8.2969-28.969 0l-194.53 194.44c-4.125-49.641 0-128.29 49.688-177.94zm-289.69 153.1c-57.891-57.938-57.891-161.34-53.766-202.74 41.391-4.125 144.84-8.2969 202.78 49.641 24.844 24.844 41.391 62.062 49.641 107.58-4.125 20.672-4.125 41.391-4.125 57.938l-128.29-128.26c-8.2969-8.2969-20.672-8.2969-28.969 0-8.2969 8.2969-8.2969 20.672 0 28.969l132.42 132.42c-45.516 8.25-124.18 4.125-169.69-45.562z"/>
 <path d="m1067.6 496.55h-322.74c-20.672 0-37.219 8.2969-49.641 24.844l-95.156 128.29-95.156-128.29c-12.469-16.547-29.016-24.844-49.734-24.844h-322.74c-12.422 0-24.844 8.2969-33.094 20.672-4.125 12.422-4.125 24.844 4.125 37.219l103.45 136.6v322.78c0 33.094 28.969 62.062 62.062 62.062h662.06c33.094 0 62.062-28.969 62.062-62.062v-322.78l103.45-136.55c8.2969-12.422 8.2969-24.844 4.125-37.219-8.25-12.422-20.672-20.719-33.094-20.719zm-612.42 41.391c8.2969 0 12.422 4.125 16.547 8.2969l86.906 115.88-318.61-0.046875-95.156-124.13zm-206.86 475.87v-310.36h331.03v331.03h-310.36c-12.422 0-20.672-8.2969-20.672-20.672zm703.4 0c0 12.422-8.2969 20.672-20.672 20.672h-310.36v-331.03h331.03zm12.422-351.74h-322.78l86.906-115.88c4.125-4.125 8.2969-8.2969 16.547-8.2969h310.36z"/>
</svg>
